<svg width="68" height="68" viewBox="0 0 68 68" fill="none" xmlns="http://www.w3.org/2000/svg">
<rect x="-0.5" y="0.5" width="67" height="67" rx="33.5" transform="matrix(-1 0 0 1 67 0)" stroke="#5383AC"/>
<g clip-path="url(#clip0_203_252)">
<path d="M22.1586 33.6155L27.613 28.161C27.809 27.9322 28.1533 27.9055 28.3821 28.1015C28.6109 28.2975 28.6376 28.6418 28.4416 28.8706C28.4233 28.8919 28.4034 28.9118 28.3821 28.9301L23.8604 33.4573H45.4546C45.7558 33.4573 46 33.7015 46 34.0027C46 34.304 45.7558 34.5482 45.4546 34.5482H23.8604L28.3821 39.0699C28.6109 39.2658 28.6376 39.6102 28.4416 39.839C28.2456 40.0677 27.9013 40.0944 27.6725 39.8984C27.6512 39.8802 27.6313 39.8603 27.613 39.839L22.1586 34.3845C21.9471 34.1718 21.9471 33.8282 22.1586 33.6155Z" fill="#5383AC"/>
</g>
<defs>
<clipPath id="clip0_203_252">
<rect width="24" height="24" fill="white" transform="matrix(-1 0 0 1 46 22)"/>
</clipPath>
</defs>
</svg>
