<svg width="97" height="97" viewBox="0 0 97 97" fill="none" xmlns="http://www.w3.org/2000/svg">
<rect x="48.0835" y="0.707107" width="67" height="67" rx="33.5" transform="rotate(45 48.0835 0.707107)" stroke="#5383AC"/>
<g clip-path="url(#clip0_212_571)">
<path d="M56.7285 56.1846L56.7285 48.4708C56.7518 48.1705 56.5271 47.9082 56.2268 47.885C55.9265 47.8617 55.6641 48.0864 55.6409 48.3867C55.6388 48.4147 55.6387 48.4429 55.6409 48.4708L55.637 54.8694L40.3676 39.6C40.1547 39.387 39.8093 39.387 39.5963 39.6C39.3832 39.8131 39.3833 40.1584 39.5963 40.3714L54.8657 55.6408H48.471C48.1707 55.6175 47.9083 55.8422 47.8851 56.1425C47.8619 56.4429 48.0865 56.7052 48.3869 56.7284C48.4149 56.7305 48.443 56.7306 48.471 56.7284L56.1848 56.7284C56.4847 56.7275 56.7276 56.4846 56.7285 56.1846Z" fill="#5383AC"/>
</g>
<defs>
<clipPath id="clip0_212_571">
<rect width="24" height="24" fill="white" transform="translate(48.0835 31.1128) rotate(45)"/>
</clipPath>
</defs>
</svg>
