<svg width="68" height="68" viewBox="0 0 68 68" fill="none" xmlns="http://www.w3.org/2000/svg">
<rect x="0.5" y="0.5" width="67" height="67" rx="33.5" stroke="#5383AC"/>
<g clip-path="url(#clip0_203_220)">
<path d="M45.8414 33.6155L40.387 28.161C40.191 27.9322 39.8467 27.9055 39.6179 28.1015C39.3891 28.2975 39.3624 28.6418 39.5584 28.8706C39.5767 28.8919 39.5966 28.9118 39.6179 28.9301L44.1396 33.4573H22.5454C22.2442 33.4573 22 33.7015 22 34.0027C22 34.304 22.2442 34.5482 22.5454 34.5482H44.1396L39.6179 39.0699C39.3891 39.2658 39.3624 39.6102 39.5584 39.839C39.7544 40.0677 40.0987 40.0944 40.3275 39.8984C40.3488 39.8802 40.3687 39.8603 40.387 39.839L45.8414 34.3845C46.0529 34.1718 46.0529 33.8282 45.8414 33.6155Z" fill="#5383AC"/>
</g>
<defs>
<clipPath id="clip0_203_220">
<rect width="24" height="24" fill="white" transform="translate(22 22)"/>
</clipPath>
</defs>
</svg>
